<mxfile host="app.diagrams.net" modified="2022-08-20T06:51:59.947Z" agent="5.0 (Macintosh; Intel Mac OS X 10_13_6) AppleWebKit/537.36 (KHTML, like Gecko) Chrome/104.0.0.0 Safari/537.36" etag="MzXNnXyXdo5tL4ijatHK" version="20.2.5" type="github">
  <diagram id="xwHbyZrwD9YDTguIqkBL" name="第 1 页">
    <mxGraphModel dx="946" dy="511" grid="1" gridSize="10" guides="1" tooltips="1" connect="1" arrows="1" fold="1" page="1" pageScale="1" pageWidth="827" pageHeight="1169" math="0" shadow="0">
      <root>
        <mxCell id="0" />
        <mxCell id="1" parent="0" />
        <mxCell id="RCUfTbWuSHH-EDDCtCbD-1" value="业务测试" style="rounded=0;whiteSpace=wrap;html=1;" vertex="1" parent="1">
          <mxGeometry x="70" y="200" width="120" height="60" as="geometry" />
        </mxCell>
        <mxCell id="RCUfTbWuSHH-EDDCtCbD-2" value="主要就是看数据怎么来的" style="rounded=0;whiteSpace=wrap;html=1;" vertex="1" parent="1">
          <mxGeometry x="294" y="70" width="120" height="60" as="geometry" />
        </mxCell>
        <mxCell id="RCUfTbWuSHH-EDDCtCbD-3" value="数据经过那里" style="rounded=0;whiteSpace=wrap;html=1;" vertex="1" parent="1">
          <mxGeometry x="294" y="160" width="120" height="60" as="geometry" />
        </mxCell>
        <mxCell id="RCUfTbWuSHH-EDDCtCbD-4" value="数据流向哪里" style="rounded=0;whiteSpace=wrap;html=1;" vertex="1" parent="1">
          <mxGeometry x="294" y="250" width="120" height="60" as="geometry" />
        </mxCell>
        <mxCell id="RCUfTbWuSHH-EDDCtCbD-5" value="数据显示在哪里" style="rounded=0;whiteSpace=wrap;html=1;" vertex="1" parent="1">
          <mxGeometry x="470" y="250" width="120" height="60" as="geometry" />
        </mxCell>
        <mxCell id="RCUfTbWuSHH-EDDCtCbD-6" value="显示在手机app上面" style="rounded=0;whiteSpace=wrap;html=1;" vertex="1" parent="1">
          <mxGeometry x="650" y="250" width="120" height="60" as="geometry" />
        </mxCell>
        <mxCell id="RCUfTbWuSHH-EDDCtCbD-7" value="" style="curved=1;endArrow=classic;html=1;rounded=0;exitX=1;exitY=0.25;exitDx=0;exitDy=0;" edge="1" parent="1" source="RCUfTbWuSHH-EDDCtCbD-1">
          <mxGeometry width="50" height="50" relative="1" as="geometry">
            <mxPoint x="250" y="160" as="sourcePoint" />
            <mxPoint x="300" y="110" as="targetPoint" />
            <Array as="points">
              <mxPoint x="300" y="160" />
              <mxPoint x="250" y="110" />
            </Array>
          </mxGeometry>
        </mxCell>
        <mxCell id="RCUfTbWuSHH-EDDCtCbD-8" value="" style="curved=1;endArrow=classic;html=1;rounded=0;" edge="1" parent="1" source="RCUfTbWuSHH-EDDCtCbD-1">
          <mxGeometry width="50" height="50" relative="1" as="geometry">
            <mxPoint x="270" y="250" as="sourcePoint" />
            <mxPoint x="320" y="200" as="targetPoint" />
            <Array as="points">
              <mxPoint x="320" y="250" />
              <mxPoint x="270" y="200" />
            </Array>
          </mxGeometry>
        </mxCell>
        <mxCell id="RCUfTbWuSHH-EDDCtCbD-9" value="" style="curved=1;endArrow=classic;html=1;rounded=0;exitX=1;exitY=1;exitDx=0;exitDy=0;" edge="1" parent="1" source="RCUfTbWuSHH-EDDCtCbD-1">
          <mxGeometry width="50" height="50" relative="1" as="geometry">
            <mxPoint x="260" y="330" as="sourcePoint" />
            <mxPoint x="310" y="280" as="targetPoint" />
            <Array as="points">
              <mxPoint x="310" y="330" />
              <mxPoint x="260" y="280" />
            </Array>
          </mxGeometry>
        </mxCell>
        <mxCell id="RCUfTbWuSHH-EDDCtCbD-10" value="" style="curved=1;endArrow=classic;html=1;rounded=0;" edge="1" parent="1" source="RCUfTbWuSHH-EDDCtCbD-4">
          <mxGeometry width="50" height="50" relative="1" as="geometry">
            <mxPoint x="414" y="330" as="sourcePoint" />
            <mxPoint x="484.71067811865476" y="280" as="targetPoint" />
          </mxGeometry>
        </mxCell>
        <mxCell id="RCUfTbWuSHH-EDDCtCbD-11" value="" style="curved=1;endArrow=classic;html=1;rounded=0;exitX=1;exitY=0.75;exitDx=0;exitDy=0;entryX=0;entryY=0.25;entryDx=0;entryDy=0;" edge="1" parent="1" source="RCUfTbWuSHH-EDDCtCbD-5" target="RCUfTbWuSHH-EDDCtCbD-6">
          <mxGeometry width="50" height="50" relative="1" as="geometry">
            <mxPoint x="580" y="310" as="sourcePoint" />
            <mxPoint x="630" y="260" as="targetPoint" />
            <Array as="points">
              <mxPoint x="630" y="310" />
              <mxPoint x="580" y="260" />
            </Array>
          </mxGeometry>
        </mxCell>
      </root>
    </mxGraphModel>
  </diagram>
</mxfile>
